# ProBuilder 5.0.0
# https://unity3d.com/unity/features/worldbuilding/probuilder
# 10/16/2020 10:14:45 PM

mtllib ./House_2.5.mtl
o House_2.5

g House_2.5
v 0 0 0
v -1 0 0
v -0.297497 1 -0.06789657
v -0.7025029 1 -0.06789657
v -0.5025308 0.1044192 -0.08011314
v -0.5025308 0.1044192 -0.9198865
v -0.5025308 0.8955808 -0.08011314
v -0.5025308 0.8955808 -0.9198865
v -1 0 -1
v 0 0 -1
v -0.7025029 1 -0.9321032
v -0.297497 1 -0.9321032
v -1.0001 0 -0.08011314
v -1.0001 0 -0.9198867
v -1.0001 1 -0.08011314
v -1.0001 1 -0.9198867
v -1.0002 0.1044192 -0.08011314
v -1.0002 0.1044192 -0.9198866
v -1.0002 0.8955808 -0.08011314
v -1.0002 0.8955808 -0.9198866

vt 0 0
vt -1 0
vt -0.297497 1.002302
vt -0.7025029 1.002302
vt -0.08011314 0.1044192
vt -0.9198865 0.1044192
vt -0.08011314 0.8955808
vt -0.9198865 0.8955808
vt 1 -0.06774088
vt 0 -0.06774088
vt 0.7025029 0.9345614
vt 0.297497 0.9345614
vt 1 0
vt 0.9321032 1.043314
vt 0.06789657 1.043314
vt 0.297497 -0.06789657
vt 0.7025029 -0.06789657
vt 0.297497 -0.9321032
vt 0.7025029 -0.9321032
vt 0 -1
vt -1 -1
vt -1.0001 -0.08011314
vt -1.0001 -0.9198867
vt -0.7046966 0.9999256
vt -0.9991585 -0.003272532
vt -1.002544 0.9999256
vt -1.002544 0.003113703
vt -0.9987507 -0.2855765
vt -0.9312254 0.7577618
vt -0.9186374 -0.2855765
vt -0.9186374 0.6728854
vt 1.0001 -0.9198867
vt 1.0001 -0.08011314
vt -0.08011314 0.0009579323
vt -0.9198867 0.0009579323
vt -0.08011314 0.1053772
vt -0.9198866 0.1053772
vt -1.0001 1
vt -1.0002 0.8955808
vt -1.0002 0.1044192
vt 0.9990029 0
vt 0.9990029 1
vt 0.9991029 0.1044192
vt 0.9991029 0.8955808
vt -0.9198867 0.9990416
vt -0.08011314 0.9990416
vt -0.9198866 0.8946223
vt -0.08011314 0.8946223
vt 0.5025308 -0.08011314
vt 0.5025308 -0.9198865
vt 1.0002 0.8955808
vt 1.0002 0.1044192
vt 0.5025308 0.8955808
vt 0.5025308 0.1044192
vt -0.5025309 0.1044192
vt -0.5025309 0.8955808
vt -0.5025308 -0.9198865
vt -0.5025308 -0.08011314

vn 0 0.06774061 0.997703
vn -1 0 0
vn 0 0.06774088 -0.9977029
vn 0.9584841 0.2851462 0
vn 0 1 0
vn 0 -1 0
vn -0.04088539 0.07978644 0.9959732
vn -0.5204423 0.03989322 0.4986108
vn -0.9999992 0 0.001248441
vn -0.9584612 0.2852207 -0.001196581
vn -0.4997385 0.1426103 -0.5001776
vn -0.04101575 0 -0.9991585
vn -0.9999996 -0.0009578365 0
vn 0 0 1
vn -0.001191894 0 -0.9999993
vn -0.9999996 0.0009578365 0
vn 0 0 -1

usemtl ProBuilderDefault
f 3/3/1 2/2/1 1/1/1
f 3/3/1 4/4/1 2/2/1
f 7/7/2 6/6/2 5/5/2
f 7/7/2 8/8/2 6/6/2
f 11/11/3 10/10/3 9/9/3
f 11/11/3 12/12/3 10/10/3
f 12/14/4 1/1/4 10/13/4
f 12/14/4 3/15/4 1/1/4
f 12/18/5 4/17/5 3/16/5
f 12/18/5 11/19/5 4/17/5
f 1/1/6 9/21/6 10/20/6
f 1/1/6 2/2/6 9/21/6
f 13/22/6 9/21/6 2/2/6
f 13/22/6 14/23/6 9/21/6
f 15/26/8 2/25/8 4/24/7
f 15/26/8 13/27/9 2/25/8
f 14/30/11 11/29/11 9/28/10
f 14/30/11 16/31/12 11/29/11
f 16/32/5 4/17/5 11/19/5
f 16/32/5 15/33/5 4/17/5
f 17/36/13 14/35/13 13/34/13
f 17/36/13 18/37/13 14/35/13
f 19/39/14 13/2/14 15/38/14
f 19/39/14 17/40/14 13/2/14
f 18/43/15 16/42/15 14/41/15
f 18/43/15 20/44/15 16/42/15
f 20/47/16 15/46/16 16/45/16
f 20/47/16 19/48/16 15/46/16
f 5/49/5 18/32/5 17/33/5
f 5/49/5 6/50/5 18/32/5
f 7/53/17 17/52/17 19/51/17
f 7/53/17 5/54/17 17/52/17
f 6/55/14 20/39/14 18/40/14
f 6/55/14 8/56/14 20/39/14
f 8/57/6 19/22/6 20/23/6
f 8/57/6 7/58/6 19/22/6

